<svg width="405" height="405" viewBox="0 0 405 405" fill="none" xmlns="http://www.w3.org/2000/svg">
<g clip-path="url(#clip0_444:2189)">
<path d="M175.985 194.11L159.364 294.335L134.464 312.158L126.777 317.658L105.354 332.987C99.3205 337.31 91.0757 332.17 92.2883 324.856L105.622 244.456L175.985 194.11Z" fill="#3DB4A0"/>
<path d="M175.985 194.11L159.365 294.335L134.464 312.158L126.778 317.658L102.811 261.405L105.622 244.456L175.985 194.11Z" fill="#05A592"/>
<path d="M403.502 40.9461L174.508 373.513C170.784 378.915 162.554 378.093 159.979 372.046L156.695 364.329L105.625 244.458L74.3009 230.588L60.7737 224.607L42.4301 216.482L28.9108 210.492L2.76936 198.921C-2.11991 194.538 -0.237294 186.486 6.07818 184.701L394.343 28.2337L394.392 28.2179C398.14 27.1587 401.522 28.7392 403.412 31.3796C405.303 34.0279 405.71 37.7433 403.502 40.9461Z" fill="#74E2CD"/>
<path d="M403.502 40.9461L174.509 373.513C170.784 378.915 162.554 378.093 159.979 372.046L156.695 364.329C159.849 365.095 163.418 364.028 165.528 360.955L394.343 28.2337L394.392 28.2179C398.14 27.1587 401.522 28.7392 403.413 31.3796C405.303 34.0279 405.711 37.7433 403.502 40.9461Z" fill="#4FCEB7"/>
<path d="M403.502 40.9461L174.508 373.513C174.19 373.969 173.849 374.377 173.474 374.744C173.099 375.111 172.699 375.437 172.284 375.721C172.007 375.909 171.714 376.072 171.42 376.227C171.127 376.373 170.825 376.504 170.516 376.618C170.215 376.724 169.897 376.822 169.587 376.894C166.833 377.538 163.826 376.764 161.756 374.695C161.471 374.401 161.202 374.092 160.949 373.749C160.819 373.578 160.705 373.399 160.591 373.219C160.371 372.852 160.167 372.462 159.988 372.046L156.696 364.329L142.745 331.595L137.848 320.105L134.466 312.16L125.918 292.098L121.135 280.86L105.627 244.459L175.985 194.115L381.304 47.1959L399.419 34.2312L403.412 31.3788C405.303 34.0279 405.71 37.7433 403.502 40.9461Z" fill="#4FCEB7"/>
<path d="M403.502 40.9461L174.508 373.513C174.19 373.969 173.848 374.377 173.474 374.744C173.099 375.119 172.699 375.437 172.284 375.721C172.007 375.909 171.714 376.072 171.42 376.227C171.127 376.373 170.825 376.504 170.516 376.618C170.215 376.724 169.897 376.822 169.587 376.894C166.833 377.538 163.826 376.764 161.756 374.695C161.471 374.401 161.194 374.092 160.949 373.749C160.819 373.578 160.705 373.399 160.591 373.219C160.363 372.852 160.159 372.462 159.98 372.046L156.695 364.329C159.849 365.095 163.418 364.028 165.529 360.955L381.304 47.1959L399.419 34.2312L403.412 31.3788C405.303 34.0279 405.71 37.7433 403.502 40.9461Z" fill="#3DB4A0"/>
<path d="M57.1475 207.233L42.4299 216.482L28.9106 210.492L50.6359 196.884C53.4962 195.091 57.2693 195.946 59.0618 198.807C60.8629 201.668 59.9991 205.441 57.1475 207.233Z" fill="#4FCEB7"/>
<path d="M91.0229 220.084L74.3016 230.588L60.7744 224.606L84.5207 209.735C87.381 207.933 91.1542 208.797 92.9466 211.658C94.747 214.511 93.8832 218.283 91.0229 220.084Z" fill="#4FCEB7"/>
<path d="M148.464 276.312L125.916 292.097L121.133 280.86C121.239 280.77 121.345 280.689 121.459 280.607L141.35 266.371C144.097 264.407 147.918 265.043 149.882 267.79C151.846 270.527 151.21 274.348 148.464 276.312Z" fill="#3DB4A0"/>
<path d="M165.952 315.069L142.743 331.595L137.846 320.105L158.838 305.127C161.585 303.163 165.406 303.799 167.37 306.545C169.334 309.291 168.698 313.105 165.952 315.069Z" fill="#3DB4A0"/>
</g>
<defs>
<clipPath id="clip0_444:2189">
<rect width="405" height="405" fill="white"/>
</clipPath>
</defs>
</svg>
