<svg width="35" height="35" viewBox="0 0 35 35" fill="none" xmlns="http://www.w3.org/2000/svg">
<path fill-rule="evenodd" clip-rule="evenodd" d="M17.5001 0.685024C8.1289 0.685024 0.529785 8.47501 0.529785 18.0849C0.529785 25.7726 5.3923 32.2948 12.1351 34.5955C12.9833 34.7566 13.2946 34.2181 13.2946 33.7585C13.2946 33.3436 13.2789 31.9729 13.2716 30.519C8.55043 31.5716 7.5542 28.466 7.5542 28.466C6.78224 26.4549 5.66996 25.9201 5.66996 25.9201C4.13024 24.8402 5.78602 24.8623 5.78602 24.8623C7.49013 24.9848 8.38744 26.6557 8.38744 26.6557C9.90102 29.3155 12.3574 28.5464 13.3258 28.1018C13.4781 26.9773 13.9179 26.2094 14.4033 25.7752C10.6339 25.3352 6.67152 23.8432 6.67152 17.1761C6.67152 15.2764 7.33445 13.7242 8.42003 12.5057C8.24383 12.0672 7.66296 10.2978 8.58443 7.90105C8.58443 7.90105 10.0095 7.43341 13.2525 9.6846C14.6062 9.29908 16.0579 9.10574 17.5001 9.09912C18.9423 9.10574 20.3952 9.29908 21.7514 9.6846C24.9905 7.43341 26.4136 7.90105 26.4136 7.90105C27.3373 10.2978 26.7561 12.0672 26.5799 12.5057C27.6681 13.7242 28.3265 15.2764 28.3265 17.1761C28.3265 23.8591 24.3565 25.3306 20.5776 25.7613C21.1863 26.3013 21.7287 27.3602 21.7287 28.9835C21.7287 31.3117 21.709 33.1854 21.709 33.7585C21.709 34.2215 22.0145 34.7641 22.8747 34.5932C29.6139 32.2899 34.4702 25.77 34.4702 18.0849C34.4702 8.47501 26.8722 0.685024 17.5001 0.685024Z" fill="#1B1817"/>
</svg>
