<svg width="35" height="34" viewBox="0 0 35 34" fill="none" xmlns="http://www.w3.org/2000/svg">
<path d="M28.1065 4.27016H6.89374C5.72209 4.27016 4.77246 5.21978 4.77246 6.39143V29.7255L10.8223 24.7758H28.1065C29.2774 24.7758 30.2278 23.8255 30.2278 22.6545V6.39143C30.2278 5.21978 29.2774 4.27016 28.1065 4.27016Z" fill="#CFD8DC"/>
<path d="M9.01483 6.39146H25.985C27.156 6.39146 28.1063 7.34109 28.1063 8.51274V29.7255L19.6212 22.6546H9.01483C7.84318 22.6546 6.89355 21.7042 6.89355 20.5333V8.51274C6.89355 7.34109 7.84318 6.39146 9.01483 6.39146Z" fill="#42A5F5"/>
<path d="M22.4496 13.4624C22.4496 14.243 21.816 14.8765 21.0354 14.8765C20.2548 14.8765 19.6212 14.243 19.6212 13.4624C19.6212 12.6817 20.2548 12.0482 21.0354 12.0482C21.816 12.0482 22.4496 12.6817 22.4496 13.4624ZM23.8638 17.4694C23.8638 17.4694 23.081 15.5836 21.0354 15.5836C18.9898 15.5836 18.207 17.4694 18.207 17.4694V18.412H23.8638V17.4694Z" fill="#BBDEFB"/>
<path d="M17.5001 12.0482C17.5001 13.2191 16.5504 14.1694 15.3788 14.1694C14.2071 14.1694 13.2575 13.2191 13.2575 12.0482C13.2575 10.8772 14.2071 9.92688 15.3788 9.92688C16.5504 9.92688 17.5001 10.8772 17.5001 12.0482ZM19.6213 17.234C19.6213 17.234 18.4476 14.8765 15.3788 14.8765C12.31 14.8765 11.1362 17.234 11.1362 17.234V18.412H19.6213V17.234Z" fill="#E3F2FD"/>
</svg>
