<svg width="35" height="35" viewBox="0 0 35 35" fill="none" xmlns="http://www.w3.org/2000/svg">
<g clip-path="url(#clip0_709:552)">
<path d="M8.28808 21.6765C8.28808 23.5891 6.72574 25.1514 4.81323 25.1514C2.90072 25.1514 1.33838 23.5891 1.33838 21.6765C1.33838 19.764 2.90072 18.2017 4.81323 18.2017H8.28808V21.6765Z" fill="#E01E5A"/>
<path d="M10.0396 21.6765C10.0396 19.764 11.6019 18.2017 13.5144 18.2017C15.4269 18.2017 16.9893 19.764 16.9893 21.6765V30.3771C16.9893 32.2897 15.4269 33.852 13.5144 33.852C11.6019 33.852 10.0396 32.2897 10.0396 30.3771V21.6765Z" fill="#E01E5A"/>
<path d="M13.5139 7.72326C11.6014 7.72326 10.0391 6.16093 10.0391 4.24841C10.0391 2.3359 11.6014 0.77356 13.5139 0.77356C15.4264 0.77356 16.9888 2.3359 16.9888 4.24841V7.72326H13.5139Z" fill="#36C5F0"/>
<path d="M13.5138 9.47415C15.4263 9.47415 16.9887 11.0365 16.9887 12.949C16.9887 14.8615 15.4263 16.4239 13.5138 16.4239H4.81323C2.90072 16.4239 1.33838 14.8615 1.33838 12.949C1.33838 11.0365 2.90072 9.47415 4.81323 9.47415H13.5138Z" fill="#36C5F0"/>
<path d="M27.4673 12.949C27.4673 11.0365 29.0296 9.47418 30.9421 9.47418C32.8546 9.47418 34.417 11.0365 34.417 12.949C34.417 14.8615 32.8546 16.4239 30.9421 16.4239H27.4673V12.949Z" fill="#2EB67D"/>
<path d="M25.7163 12.949C25.7163 14.8615 24.154 16.4239 22.2415 16.4239C20.3289 16.4239 18.7666 14.8615 18.7666 12.949V4.24841C18.7666 2.3359 20.3289 0.77356 22.2415 0.77356C24.154 0.77356 25.7163 2.3359 25.7163 4.24841V12.949Z" fill="#2EB67D"/>
<path d="M22.2419 26.9023C24.1545 26.9023 25.7168 28.4646 25.7168 30.3772C25.7168 32.2897 24.1545 33.852 22.2419 33.852C20.3294 33.852 18.7671 32.2897 18.7671 30.3772V26.9023H22.2419Z" fill="#ECB22E"/>
<path d="M22.2434 25.1514C20.3309 25.1514 18.7686 23.5891 18.7686 21.6765C18.7686 19.764 20.3309 18.2017 22.2434 18.2017H30.944C32.8565 18.2017 34.4188 19.764 34.4188 21.6765C34.4188 23.5891 32.8565 25.1514 30.944 25.1514H22.2434Z" fill="#ECB22E"/>
</g>
<defs>
<clipPath id="clip0_709:552">
<rect width="33.9404" height="33.9404" fill="white" transform="translate(0.529785 0.342529)"/>
</clipPath>
</defs>
</svg>
