<svg width="43" height="31" viewBox="0 0 43 31" fill="none" xmlns="http://www.w3.org/2000/svg">
<g clip-path="url(#clip0_709:547)">
<path d="M41.7567 5.53953C41.276 3.72576 39.8597 2.29749 38.061 1.81275C34.8011 0.931801 21.729 0.931799 21.729 0.931799C21.729 0.931799 8.65692 0.931801 5.39693 1.81275C3.59839 2.29749 2.18184 3.72576 1.70115 5.53953C0.827637 8.82686 0.827637 15.6857 0.827637 15.6857C0.827637 15.6857 0.827637 22.5444 1.70115 25.832C2.18184 27.6456 3.59839 29.0739 5.39693 29.5588C8.65692 30.4396 21.729 30.4396 21.729 30.4396C21.729 30.4396 34.8011 30.4396 38.061 29.5588C39.8597 29.0739 41.276 27.6456 41.7567 25.832C42.6303 22.5444 42.6303 15.6857 42.6303 15.6857C42.6303 15.6857 42.6303 8.82686 41.7567 5.53953Z" fill="#ED1D24"/>
<path d="M17.4536 21.9129L28.3793 15.686L17.4536 9.45841V21.9129Z" fill="white"/>
</g>
<defs>
<clipPath id="clip0_709:547">
<rect width="42.2615" height="30.2874" fill="white" transform="translate(0.369141 0.370117)"/>
</clipPath>
</defs>
</svg>
