<svg width="25" height="25" viewBox="0 0 25 25" fill="none" xmlns="http://www.w3.org/2000/svg">
<path d="M22.8581 7.10419C21.785 5.21951 20.3294 3.7274 18.491 2.62753C16.6523 1.52761 14.645 0.977783 12.4677 0.977783C10.2906 0.977783 8.28263 1.52777 6.44432 2.62753C4.60574 3.72734 3.15024 5.21951 2.07716 7.10419C1.00426 8.98883 0.467773 11.0469 0.467773 13.2782C0.467773 15.9586 1.23066 18.3689 2.75681 20.5097C4.2828 22.6506 6.25415 24.1321 8.6707 24.9542C8.95199 25.0077 9.16022 24.9701 9.29562 24.8422C9.43107 24.7142 9.49871 24.5539 9.49871 24.3619C9.49871 24.3299 9.49603 24.0417 9.49083 23.497C9.48546 22.9524 9.48295 22.4772 9.48295 22.0718L9.12356 22.1355C8.89442 22.1786 8.60536 22.1968 8.25637 22.1916C7.90754 22.1866 7.54542 22.1492 7.17049 22.0795C6.79539 22.0104 6.44651 21.8503 6.12357 21.5993C5.8008 21.3484 5.57166 21.0199 5.43621 20.6145L5.27997 20.2459C5.17582 20.0005 5.01186 19.7279 4.78787 19.4292C4.56387 19.1301 4.33736 18.9274 4.10822 18.8206L3.99882 18.7403C3.92593 18.687 3.85829 18.6226 3.79573 18.548C3.73324 18.4733 3.68645 18.3986 3.6552 18.3237C3.62389 18.2488 3.64983 18.1874 3.73329 18.1392C3.81675 18.091 3.96757 18.0676 4.18643 18.0676L4.4988 18.1155C4.70715 18.1583 4.96485 18.2862 5.27225 18.4998C5.57948 18.7133 5.83205 18.9909 6.02999 19.3324C6.26969 19.7704 6.55848 20.104 6.89718 20.3336C7.23561 20.5632 7.57683 20.6779 7.92051 20.6779C8.26419 20.6779 8.56103 20.6512 8.81113 20.598C9.06095 20.5446 9.29534 20.4643 9.5142 20.3576C9.60794 19.6419 9.86318 19.0921 10.2797 18.7078C9.68604 18.6438 9.15229 18.5475 8.6782 18.4194C8.20438 18.2912 7.71474 18.0831 7.20962 17.7945C6.70422 17.5063 6.28496 17.1485 5.95173 16.7216C5.61845 16.2944 5.34493 15.7337 5.13155 15.0398C4.91806 14.3456 4.81129 13.5449 4.81129 12.6373C4.81129 11.3451 5.22283 10.2454 6.04575 9.33776C5.66026 8.36624 5.69665 7.27715 6.15504 6.07058C6.45713 5.97437 6.90512 6.04657 7.49879 6.28673C8.09257 6.527 8.52732 6.73282 8.80346 6.90347C9.07961 7.07407 9.30087 7.21864 9.46757 7.33588C10.4365 7.05836 11.4364 6.91957 12.4676 6.91957C13.4987 6.91957 14.4988 7.05836 15.4678 7.33588L16.0615 6.95166C16.4676 6.69529 16.947 6.46035 17.4988 6.24678C18.0508 6.03333 18.473 5.97454 18.7648 6.07075C19.2334 7.27737 19.2751 8.36641 18.8895 9.33793C19.7124 10.2456 20.1241 11.3455 20.1241 12.6375C20.1241 13.545 20.0169 14.3483 19.8038 15.0478C19.5903 15.7474 19.3145 16.3076 18.976 16.7296C18.6372 17.1515 18.2153 17.5065 17.7102 17.7947C17.2049 18.083 16.7151 18.2911 16.2413 18.4194C15.7673 18.5476 15.2335 18.644 14.6399 18.7081C15.1813 19.1884 15.4521 19.9466 15.4521 20.9822V24.3615C15.4521 24.5534 15.5172 24.7137 15.6476 24.8418C15.7778 24.9696 15.9834 25.0073 16.2647 24.9537C18.6816 24.1317 20.6529 22.6502 22.1788 20.5092C23.7046 18.3685 24.4678 15.9582 24.4678 13.2778C24.4672 11.0467 23.9305 8.98883 22.8581 7.10419Z" fill="#3E3E3E"/>
</svg>
