<svg width="25" height="25" viewBox="0 0 25 25" fill="none" xmlns="http://www.w3.org/2000/svg">
<path d="M12.5 0.5C5.8736 0.5 0.5 5.8736 0.5 12.5C0.5 19.1264 5.8736 24.5 12.5 24.5C19.1264 24.5 24.5 19.1264 24.5 12.5C24.5 5.8736 19.1264 0.5 12.5 0.5ZM9.01294 18.6406H6.09039V9.84808H9.01294V18.6406ZM7.55176 8.64746H7.53271C6.552 8.64746 5.91772 7.97235 5.91772 7.1286C5.91772 6.26581 6.57141 5.60938 7.57117 5.60938C8.57092 5.60938 9.18616 6.26581 9.2052 7.1286C9.2052 7.97235 8.57092 8.64746 7.55176 8.64746ZM19.551 18.6406H16.6288V13.9368C16.6288 12.7547 16.2057 11.9485 15.1483 11.9485C14.3409 11.9485 13.8601 12.4923 13.6488 13.0173C13.5715 13.2051 13.5527 13.4677 13.5527 13.7305V18.6406H10.6303C10.6303 18.6406 10.6686 10.673 10.6303 9.84808H13.5527V11.093C13.941 10.4939 14.6359 9.64172 16.1865 9.64172C18.1093 9.64172 19.551 10.8984 19.551 13.599V18.6406Z" fill="#3E3E3E"/>
</svg>
