<svg width="24" height="24" viewBox="0 0 24 24" fill="none" xmlns="http://www.w3.org/2000/svg">
<path d="M12.989 4.75824C13.5474 4.75824 14 4.30561 14 3.74725C14 3.1889 13.5474 2.73626 12.989 2.73626V4.75824ZM21.4725 11.8791C21.4725 11.3208 21.0199 10.8681 20.4615 10.8681C19.9032 10.8681 19.4506 11.3208 19.4506 11.8791H21.4725ZM19.7213 21.4685L20.4361 22.1834L19.7213 21.4685ZM2.74028 4.48753L2.0254 3.77266L2.74028 4.48753ZM12.989 2.73626H7.05494V4.75824H12.989V2.73626ZM0.989011 8.8022V17.1538H3.01099V8.8022H0.989011ZM7.05495 23.2198H15.4066V21.1978H7.05495V23.2198ZM21.4725 17.1538V11.8791H19.4506V17.1538H21.4725ZM15.4066 23.2198C16.5695 23.2198 17.5433 23.2219 18.3146 23.1182C19.115 23.0106 19.8468 22.7727 20.4361 22.1834L19.0064 20.7536C18.8554 20.9046 18.6214 21.0368 18.0452 21.1143C17.44 21.1957 16.6266 21.1978 15.4066 21.1978V23.2198ZM19.4506 17.1538C19.4506 18.3739 19.4484 19.1872 19.367 19.7925C19.2896 20.3686 19.1574 20.6026 19.0064 20.7536L20.4361 22.1834C21.0254 21.5941 21.2634 20.8623 21.371 20.0619C21.4747 19.2906 21.4725 18.3167 21.4725 17.1538H19.4506ZM0.989011 17.1538C0.989011 18.3167 0.986864 19.2906 1.09056 20.0619C1.19817 20.8623 1.43611 21.5941 2.0254 22.1834L3.45516 20.7536C3.30417 20.6026 3.17197 20.3686 3.09451 19.7925C3.01314 19.1872 3.01099 18.3739 3.01099 17.1538H0.989011ZM7.05495 21.1978C5.8349 21.1978 5.02157 21.1957 4.41633 21.1143C3.84017 21.0368 3.60615 20.9046 3.45516 20.7536L2.0254 22.1834C2.61469 22.7727 3.34654 23.0106 4.14691 23.1182C4.9182 23.2219 5.89206 23.2198 7.05495 23.2198V21.1978ZM7.05494 2.73626C5.89206 2.73626 4.9182 2.73412 4.14691 2.83781C3.34654 2.94542 2.61469 3.18336 2.0254 3.77266L3.45516 5.20241C3.60615 5.05142 3.84017 4.91922 4.41633 4.84176C5.02157 4.76039 5.8349 4.75824 7.05494 4.75824V2.73626ZM3.01099 8.8022C3.01099 7.58216 3.01314 6.76883 3.09451 6.16359C3.17197 5.58743 3.30417 5.3534 3.45516 5.20241L2.0254 3.77266C1.43611 4.36195 1.19817 5.09379 1.09056 5.89416C0.986864 6.66545 0.989011 7.63932 0.989011 8.8022H3.01099Z" fill="white"/>
<path d="M15.6264 0.538465C15.068 0.538465 14.6154 0.9911 14.6154 1.54945C14.6154 2.10781 15.068 2.56044 15.6264 2.56044V0.538465ZM22 1.54945H23.011C23.011 0.9911 22.5584 0.538465 22 0.538465V1.54945ZM20.989 8.14286C20.989 8.70121 21.4417 9.15385 22 9.15385C22.5584 9.15385 23.011 8.70121 23.011 8.14286H20.989ZM11.2696 11.301C10.8835 11.7045 10.8976 12.3444 11.301 12.7304C11.7045 13.1165 12.3444 13.1024 12.7304 12.699L11.2696 11.301ZM15.6264 2.56044H22V0.538465H15.6264V2.56044ZM20.989 1.54945V8.14286H23.011V1.54945H20.989ZM21.2696 0.850495L11.2696 11.301L12.7304 12.699L22.7305 2.24841L21.2696 0.850495Z" fill="white"/>
</svg>
